solid OpenSCAD_Model
  facet normal -1 0 0
    outer loop
      vertex 0 0 0
      vertex 0 0 12
      vertex 0 130 0
    endloop
  endfacet
  facet normal -1 0 0
    outer loop
      vertex 0 130 0
      vertex 0 0 12
      vertex 0 130 12
    endloop
  endfacet
  facet normal 0 -1 0
    outer loop
      vertex 0 0 12
      vertex 0 0 0
      vertex 64 0 0
    endloop
  endfacet
  facet normal 0 -1 0
    outer loop
      vertex 64 0 12
      vertex 0 0 12
      vertex 64 0 0
    endloop
  endfacet
  facet normal 0 0 -1
    outer loop
      vertex 0 0 0
      vertex 0 130 0
      vertex 64 0 0
    endloop
  endfacet
  facet normal 0 0 -1
    outer loop
      vertex 64 0 0
      vertex 0 130 0
      vertex 64 130 0
    endloop
  endfacet
  facet normal 0 1 0
    outer loop
      vertex 0 130 0
      vertex 0 130 12
      vertex 64 130 0
    endloop
  endfacet
  facet normal 0 1 0
    outer loop
      vertex 64 130 0
      vertex 0 130 12
      vertex 64 130 12
    endloop
  endfacet
  facet normal 0 0 1
    outer loop
      vertex 2.5 2.5 12
      vertex 0 0 12
      vertex 64 0 12
    endloop
  endfacet
  facet normal 0 0 1
    outer loop
      vertex 61.5 2.5 12
      vertex 2.5 2.5 12
      vertex 64 0 12
    endloop
  endfacet
  facet normal 0 0 1
    outer loop
      vertex 0 130 12
      vertex 0 0 12
      vertex 2.5 2.5 12
    endloop
  endfacet
  facet normal 0 0 1
    outer loop
      vertex 64 130 12
      vertex 0 130 12
      vertex 2.5 127.5 12
    endloop
  endfacet
  facet normal 0 0 1
    outer loop
      vertex 64 130 12
      vertex 61.5 127.5 12
      vertex 64 0 12
    endloop
  endfacet
  facet normal 0 0 1
    outer loop
      vertex 64 130 12
      vertex 2.5 127.5 12
      vertex 61.5 127.5 12
    endloop
  endfacet
  facet normal 0 0 1
    outer loop
      vertex 61.5 127.5 12
      vertex 61.5 2.5 12
      vertex 64 0 12
    endloop
  endfacet
  facet normal 0 0 1
    outer loop
      vertex 2.5 2.5 12
      vertex 2.5 127.5 12
      vertex 0 130 12
    endloop
  endfacet
  facet normal 1 0 0
    outer loop
      vertex 64 0 12
      vertex 64 0 0
      vertex 64 130 0
    endloop
  endfacet
  facet normal 1 0 0
    outer loop
      vertex 64 130 12
      vertex 64 0 12
      vertex 64 130 0
    endloop
  endfacet
  facet normal 1 0 0
    outer loop
      vertex 2.5 127.5 8
      vertex 2.5 127.5 12
      vertex 2.5 2.5 12
    endloop
  endfacet
  facet normal 1 0 0
    outer loop
      vertex 2.5 2.5 8
      vertex 2.5 127.5 8
      vertex 2.5 2.5 12
    endloop
  endfacet
  facet normal 0 1 0
    outer loop
      vertex 61.5 2.5 12
      vertex 61.5 2.5 8
      vertex 2.5 2.5 12
    endloop
  endfacet
  facet normal 0 1 0
    outer loop
      vertex 2.5 2.5 12
      vertex 61.5 2.5 8
      vertex 2.5 2.5 8
    endloop
  endfacet
  facet normal -1 0 0
    outer loop
      vertex 61.5 127.5 12
      vertex 61.5 127.5 8
      vertex 61.5 2.5 12
    endloop
  endfacet
  facet normal -1 0 0
    outer loop
      vertex 61.5 2.5 12
      vertex 61.5 127.5 8
      vertex 61.5 2.5 8
    endloop
  endfacet
  facet normal 0 -1 0
    outer loop
      vertex 61.5 127.5 8
      vertex 61.5 127.5 12
      vertex 2.5 127.5 12
    endloop
  endfacet
  facet normal 0 -1 0
    outer loop
      vertex 2.5 127.5 8
      vertex 61.5 127.5 8
      vertex 2.5 127.5 12
    endloop
  endfacet
  facet normal 0 0 1
    outer loop
      vertex 61.5 2.5 8
      vertex 61.5 127.5 8
      vertex 2.5 127.5 8
    endloop
  endfacet
  facet normal 0 0 1
    outer loop
      vertex 2.5 2.5 8
      vertex 61.5 2.5 8
      vertex 2.5 127.5 8
    endloop
  endfacet
endsolid OpenSCAD_Model
