solid OpenSCAD_Model
  facet normal -1 0 0
    outer loop
      vertex -26 -43.5 -1
      vertex -26 -43.5 1
      vertex -26 43.5 -1
    endloop
  endfacet
  facet normal -1 0 0
    outer loop
      vertex -26 43.5 -1
      vertex -26 -43.5 1
      vertex -26 43.5 1
    endloop
  endfacet
  facet normal 0 -1 0
    outer loop
      vertex -26 -43.5 1
      vertex -26 -43.5 -1
      vertex 26 -43.5 -1
    endloop
  endfacet
  facet normal 0 -1 0
    outer loop
      vertex 26 -43.5 1
      vertex -26 -43.5 1
      vertex 26 -43.5 -1
    endloop
  endfacet
  facet normal 0 0 -1
    outer loop
      vertex -11.5 19.5 -1
      vertex -26 43.5 -1
      vertex 26 43.5 -1
    endloop
  endfacet
  facet normal 0 0 -1
    outer loop
      vertex 11.5 19.5 -1
      vertex -11.5 19.5 -1
      vertex 26 43.5 -1
    endloop
  endfacet
  facet normal 0 0 -1
    outer loop
      vertex -26 -43.5 -1
      vertex -26 43.5 -1
      vertex -11.5 -19.5 -1
    endloop
  endfacet
  facet normal 0 0 -1
    outer loop
      vertex -26 -43.5 -1
      vertex -11.5 -19.5 -1
      vertex 26 -43.5 -1
    endloop
  endfacet
  facet normal 0 0 -1
    outer loop
      vertex 11.5 19.5 -1
      vertex 26 -43.5 -1
      vertex 11.5 -19.5 -1
    endloop
  endfacet
  facet normal 0 0 -1
    outer loop
      vertex -11.5 -19.5 -1
      vertex 11.5 -19.5 -1
      vertex 26 -43.5 -1
    endloop
  endfacet
  facet normal 0 0 -1
    outer loop
      vertex 26 -43.5 -1
      vertex 11.5 19.5 -1
      vertex 26 43.5 -1
    endloop
  endfacet
  facet normal 0 0 -1
    outer loop
      vertex -11.5 -19.5 -1
      vertex -26 43.5 -1
      vertex -11.5 19.5 -1
    endloop
  endfacet
  facet normal 0 1 0
    outer loop
      vertex -26 43.5 -1
      vertex -26 43.5 1
      vertex 26 43.5 -1
    endloop
  endfacet
  facet normal 0 1 0
    outer loop
      vertex 26 43.5 -1
      vertex -26 43.5 1
      vertex 26 43.5 1
    endloop
  endfacet
  facet normal 0 0 1
    outer loop
      vertex -11.5 -19.5 1
      vertex -26 -43.5 1
      vertex 26 -43.5 1
    endloop
  endfacet
  facet normal 0 0 1
    outer loop
      vertex 11.5 -19.5 1
      vertex -11.5 -19.5 1
      vertex 26 -43.5 1
    endloop
  endfacet
  facet normal 0 0 1
    outer loop
      vertex -26 43.5 1
      vertex -26 -43.5 1
      vertex -11.5 -19.5 1
    endloop
  endfacet
  facet normal 0 0 1
    outer loop
      vertex 26 43.5 1
      vertex -26 43.5 1
      vertex -11.5 19.5 1
    endloop
  endfacet
  facet normal 0 0 1
    outer loop
      vertex 26 43.5 1
      vertex 11.5 19.5 1
      vertex 26 -43.5 1
    endloop
  endfacet
  facet normal 0 0 1
    outer loop
      vertex 26 43.5 1
      vertex -11.5 19.5 1
      vertex 11.5 19.5 1
    endloop
  endfacet
  facet normal 0 0 1
    outer loop
      vertex 11.5 19.5 1
      vertex 11.5 -19.5 1
      vertex 26 -43.5 1
    endloop
  endfacet
  facet normal 0 0 1
    outer loop
      vertex -11.5 -19.5 1
      vertex -11.5 19.5 1
      vertex -26 43.5 1
    endloop
  endfacet
  facet normal 1 0 0
    outer loop
      vertex 26 -43.5 1
      vertex 26 -43.5 -1
      vertex 26 43.5 -1
    endloop
  endfacet
  facet normal 1 0 0
    outer loop
      vertex 26 43.5 1
      vertex 26 -43.5 1
      vertex 26 43.5 -1
    endloop
  endfacet
  facet normal 1 0 0
    outer loop
      vertex -11.5 19.5 -1
      vertex -11.5 19.5 1
      vertex -11.5 -19.5 1
    endloop
  endfacet
  facet normal 1 0 0
    outer loop
      vertex -11.5 -19.5 -1
      vertex -11.5 19.5 -1
      vertex -11.5 -19.5 1
    endloop
  endfacet
  facet normal 0 -1 0
    outer loop
      vertex 11.5 19.5 -1
      vertex 11.5 19.5 1
      vertex -11.5 19.5 1
    endloop
  endfacet
  facet normal 0 -1 0
    outer loop
      vertex -11.5 19.5 -1
      vertex 11.5 19.5 -1
      vertex -11.5 19.5 1
    endloop
  endfacet
  facet normal -1 0 0
    outer loop
      vertex 11.5 19.5 1
      vertex 11.5 19.5 -1
      vertex 11.5 -19.5 1
    endloop
  endfacet
  facet normal -1 0 0
    outer loop
      vertex 11.5 -19.5 1
      vertex 11.5 19.5 -1
      vertex 11.5 -19.5 -1
    endloop
  endfacet
  facet normal 0 1 0
    outer loop
      vertex 11.5 -19.5 1
      vertex 11.5 -19.5 -1
      vertex -11.5 -19.5 1
    endloop
  endfacet
  facet normal 0 1 0
    outer loop
      vertex -11.5 -19.5 1
      vertex 11.5 -19.5 -1
      vertex -11.5 -19.5 -1
    endloop
  endfacet
endsolid OpenSCAD_Model
